<?xml version="1.0" encoding="UTF-8"?>
<!-- Uploaded to: SVG Repo, www.svgrepo.com, Generator: SVG Repo Mixer Tools -->
<svg width="800px" height="800px" fill="#000000" version="1.1" viewBox="0 0 491.26 491.26" xml:space="preserve" xmlns="http://www.w3.org/2000/svg">
<g transform="matrix(.50261 .73387 -.73387 .50261 261.27 -44.807)" fill="#0ff">
	<g fill="#0ff">
		<path d="m109.04 134.18-40.443-24.312 59.576-0.8v-52.838l-87.123 33.851-17.772 30.618 58.812 25.725h-74.734c-3.685-1e-3 -7.357 61.257-7.357 61.257h71.049z"/>
		<polygon points="78.178 286.43 121.06 269.27 53.662 222.98 1.6 222.98"/>
		<polygon points="388.36 283.62 403.06 245.65 491.26 239.53 454.5 177.05 385.88 227.27 320.97 207.68 256.04 245.65 182.54 243.2 178.86 276.28 227.86 295.27 222.97 314.27 185 302 123.74 276.28 99.232 289.76 99.232 331.41 137.21 357.13 254.82 357.13 276.86 308.14 251.76 276.75 322.2 279.96 290.81 309.82 327.1 311.2 373.66 293.43 406.56 321.76 479.32 321.33 485.53 252.83 406.74 255.45 400.59 275.04 428.78 288.53"/>
		
		<polygon points="394.62 371.22 394.62 323.6 288.04 323.6 275.03 356.68 311.78 389.75"/>
		<polygon points="321 194.62 352.85 146.83 356.5 55.77 295.24 45.879 249.3 115.18 302.9 131.96 300.15 186.84"/>
		<polygon points="390.81 201.54 452.04 150.09 390.81 85.173 373.66 101.41 376.1 143.36 356.5 168.47 356.5 201.54"/>
		<polygon points="135.06 177.05 129.86 195.42 99.232 185.02 77.792 222.98 128.17 259.13 165.38 244.51 179.29 201.54 193.56 207.68 193.56 221.15 269.52 216.25 281.77 181.95 281.77 144 222.97 125.59 242.57 97.737 266.46 60.05 229.23 43.515 150.23 42.855 149.3 118.55 212.55 156.22 193.56 164.8 130.01 143.36 118.83 164.8"/>
	</g>
</g>
</svg>
